HIERARCHY
ROOT Hips
{
	OFFSET 0.00000 0.00000 0.00000
	CHANNELS 6 Xposition Yposition Zposition Zrotation Yrotation Xrotation 
	JOINT LHipJoint
	{
		OFFSET 0 0 0
		CHANNELS 3 Zrotation Yrotation Xrotation
		JOINT LeftHip
		{
			OFFSET 1.52977 -1.71332 0.88991
			CHANNELS 3 Zrotation Yrotation Xrotation
			JOINT LeftKnee
			{
				OFFSET 2.23949 -6.15296 0.00000
				CHANNELS 3 Zrotation Yrotation Xrotation
				JOINT LeftAnkle
				{
					OFFSET 2.68396 -7.37412 0.00000
					CHANNELS 3 Zrotation Yrotation Xrotation
					JOINT LeftToe
					{
						OFFSET 0.20538 -0.56428 2.52710
						CHANNELS 3 Zrotation Yrotation Xrotation
						End Site
						{
							OFFSET 0.00000 -0.00000 1.29919
						}
					}
				}
			}
		}
	}
	JOINT RHipJoint
	{
		OFFSET 0 0 0
		CHANNELS 3 Zrotation Yrotation Xrotation
		JOINT RightHip
		{
			OFFSET -1.45689 -1.71333 0.88991
			CHANNELS 3 Zrotation Yrotation Xrotation
			JOINT RightKnee
			{
				OFFSET -2.36700 -6.50329 0.00000
				CHANNELS 3 Zrotation Yrotation Xrotation
				JOINT RightAnkle
				{
					OFFSET -2.69814 -7.41308 0.00000
					CHANNELS 3 Zrotation Yrotation Xrotation
					JOINT RightToe
					{
						OFFSET -0.18734 -0.51471 2.37479
						CHANNELS 3 Zrotation Yrotation Xrotation
						End Site
						{
							OFFSET -0.00000 -0.00000 1.22113
						}
					}
				}
			}
		}
	}
	JOINT lowerback
	{
		OFFSET 0 0 0
		CHANNELS 3 Zrotation Yrotation Xrotation
		JOINT Chest
		{
			OFFSET 0.04294 2.14638 -0.31163
			CHANNELS 3 Zrotation Yrotation Xrotation
			JOINT Chest2
			{
				OFFSET -0.00400 2.17216 0.01486
				CHANNELS 3 Zrotation Yrotation Xrotation
				JOINT lowerneck
				{
					OFFSET 0 0 0
					CHANNELS 3 Zrotation Yrotation Xrotation
					JOINT Neck
					{
						OFFSET 0.03869 1.76598 0.14916
						CHANNELS 3 Zrotation Yrotation Xrotation
						JOINT Head
						{
							OFFSET -0.00760 1.75513 -0.18948
							CHANNELS 3 Zrotation Yrotation Xrotation
							End Site
							{
								OFFSET -0.00601 1.82444 -0.08310
							}
						}
					}
				}
				JOINT LeftCollar
				{
					OFFSET 0 0 0
					CHANNELS 3 Zrotation Yrotation Xrotation
					JOINT LeftShoulder
					{
						OFFSET 3.73696 0.92058 0.01733
CHANNELS 3 Zrotation Xrotation Yrotation
						JOINT LeftElbow
						{
OFFSET 0 -5.227710 0.000000
CHANNELS 3 Zrotation Xrotation Yrotation
							JOINT LeftWrist
							{
OFFSET 0 -3.452510 0.000000
CHANNELS 3 Zrotation Xrotation Yrotation
								JOINT lhand
								{
									OFFSET 0 0 0
CHANNELS 3 Zrotation Xrotation Yrotation
									JOINT LFingers
									{
OFFSET 0 -0.552120 0.000000
CHANNELS 3 Zrotation Xrotation Yrotation
										End Site
										{
OFFSET 0 -0.445130 0.000000
										}
									}
								}
								JOINT LThumb
								{
OFFSET 0 0.000000 0.000000
CHANNELS 3 Zrotation Xrotation Yrotation
									End Site
									{
OFFSET 0 -0.451930 0.451930
									}
								}
							}
						}
					}
				}
				JOINT RightCollar
				{
					OFFSET 0 0 0
					CHANNELS 3 Zrotation Yrotation Xrotation
					JOINT RightShoulder
					{
						OFFSET -3.63819 0.83094 -0.13694
CHANNELS 3 Zrotation Xrotation Yrotation
						JOINT RightElbow
						{
OFFSET 0 -5.239800 -0.000000
CHANNELS 3 Zrotation Xrotation Yrotation
							JOINT RightWrist
							{
OFFSET 0 -3.480420 -0.000000
CHANNELS 3 Zrotation Xrotation Yrotation
								JOINT rhand
								{
									OFFSET 0 0 0
CHANNELS 3 Zrotation Xrotation Yrotation
									JOINT RFingers
									{
OFFSET 0 -0.618710 0.000000
CHANNELS 3 Zrotation Xrotation Yrotation
										End Site
										{
OFFSET 0 -0.498820 0.000000
										}
									}
								}
								JOINT RThumb
								{
OFFSET 0 0.000000 0.000000
CHANNELS 3 Zrotation Xrotation Yrotation
									End Site
									{
OFFSET 0 -0.506440 0.506440
									}
								}
							}
						}
					}
				}
			}
		}
	}
}
MOTION
Frames: 8
Frame Time: 0.008333333333333333
-39.266600 17.105100 -21.325800 -6.080800 46.913100 -0.174500 0.000000 0.000000 0.000000 -18.525700 2.956200 -3.929800 0.611000 5.002800 13.916600 0.865300 -3.726900 -16.717200 0.045700 1.380200 3.795600 0.000000 0.000000 0.000000 28.464100 8.358300 -7.742900 -2.160400 -9.192600 26.399600 -2.427700 0.219100 -29.462600 -1.416500 -7.527000 21.286400 3.516100 -1.204500 1.941100 0.587700 -1.543900 1.313500 -1.339100 -0.749900 0.182700 1.591000 -0.255400 -6.245900 1.203100 -0.583900 7.252000 0.086400 -0.189800 3.442000 0.000000 0.000000 0.000000 -0.807300 -3.674000 -2.282200 6.394500 -10.918500 0.611800 21.659000 4.661000 -16.370400 0.000000 0.000000 0.000000 -7.125000 0.000000 0.000000 -5.881700 47.433200 0.354300 0.000000 0.000000 0.000000 2.375500 1.164200 17.636200 -11.386000 -18.877500 -1.898900 -19.806200 11.000200 6.325500 0.000000 0.000000 0.000000 7.125000 0.000000 -0.000000 5.856100 36.645000 1.208500
-39.242319 17.103122 -21.309319 -6.091788 46.970009 -0.219610 0.000000 0.000000 0.000000 -18.562488 2.759955 -3.751909 0.616000 5.022999 13.974246 0.874103 -3.594758 -16.822222 0.064774 1.641917 4.517047 0.000000 0.000000 0.000000 28.580078 8.877954 -7.456628 -2.176296 -9.224052 26.498615 -2.452080 -0.399868 -29.809613 -1.380391 -7.434265 21.008621 3.480492 -1.236911 2.084251 0.610041 -1.581070 1.319044 -1.292333 -0.769644 0.107989 1.513827 -0.246834 -6.160620 1.234050 -0.564300 7.156404 0.111084 -0.182378 3.392522 0.000000 0.000000 0.000000 -0.881279 -3.653426 -2.780164 6.377646 -10.890427 0.608571 22.159480 3.772066 -16.153771 0.000000 0.000000 0.000000 -7.125000 0.000000 0.000000 -5.365778 47.272068 0.311848 0.000000 0.000000 0.000000 2.384458 1.230469 17.958123 -11.461325 -18.991939 -1.923374 -19.733764 10.731408 6.356076 0.000000 0.000000 0.000000 7.125000 0.000000 0.000000 5.920267 36.673106 1.217772
-39.217023 17.103437 -21.289275 -6.158520 47.068399 -0.316438 0.000000 0.000000 0.000000 -18.548276 2.630011 -3.578496 0.620785 5.042158 14.028879 0.867668 -3.441367 -16.778041 0.064064 1.632482 4.491000 0.000000 0.000000 0.000000 28.663228 8.660942 -7.384179 -2.175507 -9.222496 26.493933 -2.431697 -0.642216 -29.766045 -1.315361 -7.264221 20.500710 3.523788 -1.260059 2.069278 0.600591 -1.613200 1.386626 -1.326702 -0.783341 0.182764 1.496966 -0.256160 -6.166087 1.279378 -0.579278 7.177001 0.128181 -0.188093 3.400962 0.000000 0.000000 0.000000 -0.879189 -3.757196 -2.922593 6.383737 -10.900642 0.609727 22.171697 3.683466 -16.332616 0.000000 0.000000 0.000000 -7.125000 0.000000 0.000000 -5.389041 47.465295 0.331636 0.000000 0.000000 0.000000 2.475461 1.199625 18.093339 -11.512253 -19.069174 -1.939970 -19.651911 10.598280 6.326102 0.000000 0.000000 0.000000 7.125000 0.000000 0.000000 5.985562 36.636691 1.236600
-39.192002 17.103011 -21.268324 -6.202011 47.211897 -0.368620 0.000000 0.000000 0.000000 -18.521331 2.648164 -3.513033 0.628311 5.071988 14.113986 0.862022 -3.544000 -16.707919 0.067333 1.673972 4.605518 0.000000 0.000000 0.000000 28.851975 8.741303 -7.272286 -2.188021 -9.247197 26.571668 -2.456043 -1.344139 -30.159450 -1.280026 -7.169845 20.219645 3.512555 -1.306513 1.984973 0.612007 -1.680191 1.442756 -1.310182 -0.814501 0.284914 1.506166 -0.244857 -6.197324 1.270152 -0.565823 7.245988 0.124205 -0.180612 3.430988 0.000000 0.000000 0.000000 -0.904163 -3.893251 -3.420305 6.373680 -10.883971 0.607801 22.774716 3.106018 -15.998428 0.000000 0.000000 0.000000 -7.125000 0.000000 0.000000 -4.743197 47.197304 0.257870 0.000000 0.000000 0.000000 2.541863 1.067817 18.175372 -11.496193 -19.044773 -1.934735 -19.661272 10.596991 6.391193 0.000000 0.000000 0.000000 7.125000 0.000000 0.000000 5.985207 36.705794 1.226432
-39.164529 17.099304 -21.245410 -6.264418 47.226941 -0.461612 0.000000 0.000000 0.000000 -18.477976 2.753796 -3.391449 0.632311 5.088042 14.159782 0.863699 -3.616178 -16.715118 0.067516 1.675545 4.609771 0.000000 0.000000 0.000000 28.944756 8.614343 -7.187270 -2.201527 -9.273779 26.655533 -2.459264 -1.557638 -30.256893 -1.229886 -7.033206 19.813804 3.536482 -1.287017 1.894276 0.599388 -1.658746 1.481251 -1.339603 -0.801742 0.375225 1.604901 -0.240334 -6.268784 1.248035 -0.570995 7.413915 0.099371 -0.178922 3.503082 0.000000 0.000000 0.000000 -0.853537 -4.049085 -3.681466 6.350051 -10.844654 0.603390 22.779773 3.088445 -15.905707 0.000000 0.000000 0.000000 -7.125000 0.000000 0.000000 -4.718747 47.099398 0.245002 0.000000 0.000000 0.000000 2.636838 1.024079 18.198650 -11.488112 -19.032610 -1.932113 -19.729529 10.615852 6.393638 0.000000 0.000000 0.000000 7.125000 0.000000 0.000000 5.928208 36.712338 1.213700
-39.139856 17.096519 -21.222351 -6.299163 47.223934 -0.509900 0.000000 0.000000 0.000000 -18.437302 2.854445 -3.348405 0.638507 5.112219 14.228797 0.865262 -3.688055 -16.721508 0.075152 1.768264 4.865627 0.000000 0.000000 0.000000 28.906951 8.409992 -7.041644 -2.184148 -9.239508 26.547490 -2.432935 -1.430453 -30.050218 -1.162747 -6.845306 19.257978 3.494566 -1.294586 1.830835 0.619879 -1.672162 1.472521 -1.296349 -0.808555 0.402987 1.572451 -0.196762 -6.303969 1.291903 -0.516211 7.593951 0.122360 -0.148572 3.573227 0.000000 0.000000 0.000000 -0.922940 -3.978154 -4.097314 6.495412 -11.085892 0.631008 22.693733 2.961972 -16.140180 0.000000 0.000000 0.000000 -7.125000 0.000000 0.000000 -4.850044 47.336555 0.280254 0.000000 0.000000 0.000000 2.645532 1.046643 18.384603 -11.491202 -19.037293 -1.933148 -19.714270 10.595658 6.374062 0.000000 0.000000 0.000000 7.125000 0.000000 0.000000 5.938802 36.690909 1.218991
-39.113915 17.094289 -21.201603 -6.314131 47.315805 -0.562421 0.000000 0.000000 0.000000 -18.442997 2.824301 -3.218704 0.645232 5.138750 14.304817 0.874667 -3.710253 -16.813021 0.083701 1.865756 5.134865 0.000000 0.000000 0.000000 28.899310 8.374004 -6.764677 -2.158668 -9.189036 26.388507 -2.425100 -1.560224 -30.050526 -1.094664 -6.648768 18.678892 3.484610 -1.308008 1.763405 0.612643 -1.693594 1.486700 -1.299734 -0.818342 0.454224 1.500083 -0.206419 -6.263529 1.354378 -0.527532 7.688337 0.155287 -0.152483 3.598710 0.000000 0.000000 0.000000 -0.884602 -4.031989 -4.844923 6.579746 -11.225418 0.647392 22.874700 2.083890 -15.856994 0.000000 0.000000 0.000000 -7.125000 0.000000 0.000000 -4.618840 47.060857 0.235376 0.000000 0.000000 0.000000 2.664938 1.226886 18.742537 -11.682960 -19.327424 -1.996079 -19.652069 10.373006 6.598565 0.000000 0.000000 0.000000 7.125000 0.000000 0.000000 6.017381 36.923785 1.200751
-39.090704 17.091604 -21.184721 -6.408790 47.453853 -0.648734 0.000000 0.000000 0.000000 -18.399613 2.715992 -3.077171 0.648496 5.151199 14.340441 0.876230 -3.654785 -16.835483 0.088882 1.922498 5.291574 0.000000 0.000000 0.000000 29.088478 8.521451 -6.548659 -2.153945 -9.179604 26.358727 -2.444027 -2.156517 -30.391963 -1.055969 -6.534006 18.342069 3.539124 -1.335462 1.761729 0.630602 -1.728737 1.446557 -1.310706 -0.836685 0.411309 1.497042 -0.197413 -6.330287 1.325714 -0.515919 7.817226 0.146994 -0.146270 3.656924 0.000000 0.000000 0.000000 -0.911369 -4.000588 -5.301276 6.699237 -11.423150 0.670795 22.718137 1.725323 -16.393375 0.000000 0.000000 0.000000 -7.125000 0.000000 0.000000 -4.881619 47.609142 0.315014 0.000000 0.000000 0.000000 2.677822 1.364044 18.842413 -11.779465 -19.473111 -2.028188 -19.592948 10.201896 6.666411 0.000000 0.000000 0.000000 7.125000 0.000000 0.000000 6.075150 36.991834 1.202313
